<svg xmlns="http://www.w3.org/2000/svg" width="21" height="13.3" viewBox="0 0 21 13.3"><defs><style>.a{fill:#053eff;}</style></defs><g transform="translate(0 43.436)"><g transform="translate(0 -43.436)"><path class="a" d="M8.475,23.51a2.26,2.26,0,0,0,1.987-2.478c0-2.331-1.626-3.468-3.685-3.468H0V30.588H6.777s4.137.131,4.137-3.844C10.914,26.744,11.094,23.51,8.475,23.51ZM2.986,19.879H6.777s.921,0,.921,1.355-.542,1.551-1.156,1.551H2.986ZM6.6,28.273H2.986V24.793H6.777s1.373-.018,1.373,1.789C8.15,28.087,7.146,28.258,6.6,28.273Z" transform="translate(0 -17.564)"/><rect class="a" width="5.374" height="1.604" transform="translate(13.63 0.767)"/><path class="a" d="M57.121,32.682c-5.008,0-5,5-5,5a4.621,4.621,0,0,0,5,4.979s4.457.255,4.457-3.464H59.286s.076,1.4-2.088,1.4a2.118,2.118,0,0,1-2.292-2.267h6.748S62.392,32.682,57.121,32.682ZM59.158,36.6H54.88a2.329,2.329,0,0,1,2.292-2.007A1.938,1.938,0,0,1,59.158,36.6Z" transform="translate(-40.69 -29.368)"/></g></g></svg>